<svg width="95" height="11" viewBox="0 0 95 11" fill="none" xmlns="http://www.w3.org/2000/svg">
<mask id="path-1-outside-1_926_195" maskUnits="userSpaceOnUse" x="-0.124023" y="0" width="95" height="11" fill="black">
<rect fill="white" x="-0.124023" width="95" height="11"/>
<path d="M0.875977 9.496H1.96798V5.62H5.47198V4.636H1.96798V2.068H6.25198V1.096H0.875977V9.496Z"/>
<path d="M14.4905 9.496L12.0665 5.584C12.5545 5.408 12.9345 5.136 13.2065 4.768C13.4785 4.392 13.6185 3.944 13.6265 3.424C13.6185 2.712 13.3785 2.148 12.9065 1.732C12.4345 1.316 11.7945 1.104 10.9865 1.096H7.96254V9.496H9.05454V5.752H10.9145L13.2425 9.496H14.4905ZM9.05454 2.068H10.8665C11.3865 2.068 11.7905 2.188 12.0785 2.428C12.3665 2.66 12.5105 2.992 12.5105 3.424C12.5105 3.856 12.3665 4.188 12.0785 4.42C11.7905 4.652 11.3865 4.768 10.8665 4.768H9.05454V2.068Z"/>
<path d="M15.8929 9.496H21.3169V8.512H16.9849V5.524H20.3929V4.54H16.9849V2.068H21.1849V1.096H15.8929V9.496Z"/>
<path d="M25.1854 9.496H26.2894V5.98L29.2534 1.096H28.0174L25.7374 4.936L23.4694 1.096H22.2334L25.1854 5.98V9.496Z"/>
<path d="M29.9587 8.5V9.472C30.0627 9.496 30.1827 9.516 30.3187 9.532C30.4547 9.556 30.5827 9.568 30.7027 9.568C31.3507 9.568 31.8667 9.368 32.2507 8.968C32.6427 8.568 32.8427 7.94 32.8507 7.084V1.096H31.7827V7.12C31.7827 7.656 31.6867 8.04 31.4947 8.272C31.2947 8.496 30.9907 8.604 30.5827 8.596C30.4787 8.596 30.3707 8.588 30.2587 8.572C30.1547 8.556 30.0547 8.532 29.9587 8.5Z"/>
<path d="M40.7091 9.496H41.8491L38.5131 1.096H37.5171L34.1931 9.496H35.3211L36.1491 7.36H39.8811L40.7091 9.496ZM36.5211 6.388L38.0211 2.536L39.5091 6.388H36.5211Z"/>
<path d="M42.6321 3.376H43.3281L44.5881 1H43.2801L42.6321 3.376Z"/>
<path d="M48.9389 9.592C49.8669 9.584 50.6029 9.368 51.1469 8.944C51.6909 8.52 51.9709 7.948 51.9869 7.228C51.7869 5.708 50.9869 4.856 49.5869 4.672C48.1869 4.488 47.3869 3.996 47.1869 3.196C47.1949 2.812 47.3469 2.512 47.6429 2.296C47.9469 2.08 48.3709 1.972 48.9149 1.972C49.4509 1.98 49.8869 2.112 50.2229 2.368C50.5589 2.632 50.7709 2.996 50.8589 3.46L51.8549 3.076C51.7349 2.444 51.4109 1.94 50.8829 1.564C50.3549 1.196 49.6989 1.008 48.9149 1C48.0749 1.008 47.3949 1.212 46.8749 1.612C46.3629 2.004 46.0989 2.532 46.0829 3.196C46.2829 4.524 47.0789 5.288 48.4709 5.488C49.8629 5.688 50.6589 6.272 50.8589 7.24C50.8509 7.664 50.6789 8 50.3429 8.248C50.0069 8.488 49.5469 8.612 48.9629 8.62C48.3949 8.612 47.9109 8.436 47.5109 8.092C47.1189 7.74 46.8749 7.268 46.7789 6.676L45.7469 7.012C45.8989 7.788 46.2629 8.408 46.8389 8.872C47.4149 9.344 48.1149 9.584 48.9389 9.592Z"/>
<path d="M58.8167 9.496H59.9567L61.9967 2.728L64.0127 9.496H65.1647L67.7087 1.096H66.5807L64.5767 8.236L62.5607 1.096H61.4207L59.3927 8.236L57.3887 1.096H56.2607L58.8167 9.496Z"/>
<path d="M72.9195 9.592C74.1355 9.568 75.1235 9.164 75.8835 8.38C76.6355 7.596 77.0235 6.568 77.0475 5.296C77.0235 4.024 76.6355 2.996 75.8835 2.212C75.1235 1.428 74.1355 1.024 72.9195 1C71.6955 1.024 70.7075 1.428 69.9555 2.212C69.1955 2.996 68.8035 4.024 68.7795 5.296C68.8035 6.568 69.1955 7.596 69.9555 8.38C70.7075 9.164 71.6955 9.568 72.9195 9.592ZM72.9075 8.608C72.0195 8.592 71.2995 8.28 70.7475 7.672C70.1955 7.064 69.9115 6.272 69.8955 5.296C69.9115 4.32 70.1955 3.524 70.7475 2.908C71.2995 2.3 72.0195 1.988 72.9075 1.972C73.8035 1.988 74.5275 2.3 75.0795 2.908C75.6315 3.524 75.9155 4.32 75.9315 5.296C75.9155 6.272 75.6315 7.064 75.0795 7.672C74.5275 8.28 73.8035 8.592 72.9075 8.608Z"/>
<path d="M85.3093 9.496L82.8853 5.584C83.3733 5.408 83.7533 5.136 84.0253 4.768C84.2973 4.392 84.4373 3.944 84.4453 3.424C84.4373 2.712 84.1973 2.148 83.7253 1.732C83.2533 1.316 82.6133 1.104 81.8053 1.096H78.7813V9.496H79.8733V5.752H81.7333L84.0613 9.496H85.3093ZM79.8733 2.068H81.6853C82.2053 2.068 82.6093 2.188 82.8973 2.428C83.1853 2.66 83.3293 2.992 83.3293 3.424C83.3293 3.856 83.1853 4.188 82.8973 4.42C82.6093 4.652 82.2053 4.768 81.6853 4.768H79.8733V2.068Z"/>
<path d="M91.9556 9.496H93.2756L89.6876 4.432L92.9276 1.096H91.4756L87.8036 4.9V1.096H86.7116V9.496H87.8036V6.352L88.9196 5.2L91.9556 9.496Z"/>
</mask>
<path d="M0.875977 9.496H1.96798V5.62H5.47198V4.636H1.96798V2.068H6.25198V1.096H0.875977V9.496Z" fill="#A6A6A6"/>
<path d="M14.4905 9.496L12.0665 5.584C12.5545 5.408 12.9345 5.136 13.2065 4.768C13.4785 4.392 13.6185 3.944 13.6265 3.424C13.6185 2.712 13.3785 2.148 12.9065 1.732C12.4345 1.316 11.7945 1.104 10.9865 1.096H7.96254V9.496H9.05454V5.752H10.9145L13.2425 9.496H14.4905ZM9.05454 2.068H10.8665C11.3865 2.068 11.7905 2.188 12.0785 2.428C12.3665 2.66 12.5105 2.992 12.5105 3.424C12.5105 3.856 12.3665 4.188 12.0785 4.42C11.7905 4.652 11.3865 4.768 10.8665 4.768H9.05454V2.068Z" fill="#A6A6A6"/>
<path d="M15.8929 9.496H21.3169V8.512H16.9849V5.524H20.3929V4.54H16.9849V2.068H21.1849V1.096H15.8929V9.496Z" fill="#A6A6A6"/>
<path d="M25.1854 9.496H26.2894V5.98L29.2534 1.096H28.0174L25.7374 4.936L23.4694 1.096H22.2334L25.1854 5.98V9.496Z" fill="#A6A6A6"/>
<path d="M29.9587 8.5V9.472C30.0627 9.496 30.1827 9.516 30.3187 9.532C30.4547 9.556 30.5827 9.568 30.7027 9.568C31.3507 9.568 31.8667 9.368 32.2507 8.968C32.6427 8.568 32.8427 7.94 32.8507 7.084V1.096H31.7827V7.12C31.7827 7.656 31.6867 8.04 31.4947 8.272C31.2947 8.496 30.9907 8.604 30.5827 8.596C30.4787 8.596 30.3707 8.588 30.2587 8.572C30.1547 8.556 30.0547 8.532 29.9587 8.5Z" fill="#A6A6A6"/>
<path d="M40.7091 9.496H41.8491L38.5131 1.096H37.5171L34.1931 9.496H35.3211L36.1491 7.36H39.8811L40.7091 9.496ZM36.5211 6.388L38.0211 2.536L39.5091 6.388H36.5211Z" fill="#A6A6A6"/>
<path d="M42.6321 3.376H43.3281L44.5881 1H43.2801L42.6321 3.376Z" fill="#A6A6A6"/>
<path d="M48.9389 9.592C49.8669 9.584 50.6029 9.368 51.1469 8.944C51.6909 8.52 51.9709 7.948 51.9869 7.228C51.7869 5.708 50.9869 4.856 49.5869 4.672C48.1869 4.488 47.3869 3.996 47.1869 3.196C47.1949 2.812 47.3469 2.512 47.6429 2.296C47.9469 2.08 48.3709 1.972 48.9149 1.972C49.4509 1.98 49.8869 2.112 50.2229 2.368C50.5589 2.632 50.7709 2.996 50.8589 3.46L51.8549 3.076C51.7349 2.444 51.4109 1.94 50.8829 1.564C50.3549 1.196 49.6989 1.008 48.9149 1C48.0749 1.008 47.3949 1.212 46.8749 1.612C46.3629 2.004 46.0989 2.532 46.0829 3.196C46.2829 4.524 47.0789 5.288 48.4709 5.488C49.8629 5.688 50.6589 6.272 50.8589 7.24C50.8509 7.664 50.6789 8 50.3429 8.248C50.0069 8.488 49.5469 8.612 48.9629 8.62C48.3949 8.612 47.9109 8.436 47.5109 8.092C47.1189 7.74 46.8749 7.268 46.7789 6.676L45.7469 7.012C45.8989 7.788 46.2629 8.408 46.8389 8.872C47.4149 9.344 48.1149 9.584 48.9389 9.592Z" fill="#A6A6A6"/>
<path d="M58.8167 9.496H59.9567L61.9967 2.728L64.0127 9.496H65.1647L67.7087 1.096H66.5807L64.5767 8.236L62.5607 1.096H61.4207L59.3927 8.236L57.3887 1.096H56.2607L58.8167 9.496Z" fill="#A6A6A6"/>
<path d="M72.9195 9.592C74.1355 9.568 75.1235 9.164 75.8835 8.38C76.6355 7.596 77.0235 6.568 77.0475 5.296C77.0235 4.024 76.6355 2.996 75.8835 2.212C75.1235 1.428 74.1355 1.024 72.9195 1C71.6955 1.024 70.7075 1.428 69.9555 2.212C69.1955 2.996 68.8035 4.024 68.7795 5.296C68.8035 6.568 69.1955 7.596 69.9555 8.38C70.7075 9.164 71.6955 9.568 72.9195 9.592ZM72.9075 8.608C72.0195 8.592 71.2995 8.28 70.7475 7.672C70.1955 7.064 69.9115 6.272 69.8955 5.296C69.9115 4.32 70.1955 3.524 70.7475 2.908C71.2995 2.3 72.0195 1.988 72.9075 1.972C73.8035 1.988 74.5275 2.3 75.0795 2.908C75.6315 3.524 75.9155 4.32 75.9315 5.296C75.9155 6.272 75.6315 7.064 75.0795 7.672C74.5275 8.28 73.8035 8.592 72.9075 8.608Z" fill="#A6A6A6"/>
<path d="M85.3093 9.496L82.8853 5.584C83.3733 5.408 83.7533 5.136 84.0253 4.768C84.2973 4.392 84.4373 3.944 84.4453 3.424C84.4373 2.712 84.1973 2.148 83.7253 1.732C83.2533 1.316 82.6133 1.104 81.8053 1.096H78.7813V9.496H79.8733V5.752H81.7333L84.0613 9.496H85.3093ZM79.8733 2.068H81.6853C82.2053 2.068 82.6093 2.188 82.8973 2.428C83.1853 2.66 83.3293 2.992 83.3293 3.424C83.3293 3.856 83.1853 4.188 82.8973 4.42C82.6093 4.652 82.2053 4.768 81.6853 4.768H79.8733V2.068Z" fill="#A6A6A6"/>
<path d="M91.9556 9.496H93.2756L89.6876 4.432L92.9276 1.096H91.4756L87.8036 4.9V1.096H86.7116V9.496H87.8036V6.352L88.9196 5.2L91.9556 9.496Z" fill="#A6A6A6"/>
<path d="M0.875977 9.496H1.96798V5.62H5.47198V4.636H1.96798V2.068H6.25198V1.096H0.875977V9.496Z" stroke="#A6A6A6" mask="url(#path-1-outside-1_926_195)"/>
<path d="M14.4905 9.496L12.0665 5.584C12.5545 5.408 12.9345 5.136 13.2065 4.768C13.4785 4.392 13.6185 3.944 13.6265 3.424C13.6185 2.712 13.3785 2.148 12.9065 1.732C12.4345 1.316 11.7945 1.104 10.9865 1.096H7.96254V9.496H9.05454V5.752H10.9145L13.2425 9.496H14.4905ZM9.05454 2.068H10.8665C11.3865 2.068 11.7905 2.188 12.0785 2.428C12.3665 2.66 12.5105 2.992 12.5105 3.424C12.5105 3.856 12.3665 4.188 12.0785 4.42C11.7905 4.652 11.3865 4.768 10.8665 4.768H9.05454V2.068Z" stroke="#A6A6A6" mask="url(#path-1-outside-1_926_195)"/>
<path d="M15.8929 9.496H21.3169V8.512H16.9849V5.524H20.3929V4.54H16.9849V2.068H21.1849V1.096H15.8929V9.496Z" stroke="#A6A6A6" mask="url(#path-1-outside-1_926_195)"/>
<path d="M25.1854 9.496H26.2894V5.98L29.2534 1.096H28.0174L25.7374 4.936L23.4694 1.096H22.2334L25.1854 5.98V9.496Z" stroke="#A6A6A6" mask="url(#path-1-outside-1_926_195)"/>
<path d="M29.9587 8.5V9.472C30.0627 9.496 30.1827 9.516 30.3187 9.532C30.4547 9.556 30.5827 9.568 30.7027 9.568C31.3507 9.568 31.8667 9.368 32.2507 8.968C32.6427 8.568 32.8427 7.94 32.8507 7.084V1.096H31.7827V7.12C31.7827 7.656 31.6867 8.04 31.4947 8.272C31.2947 8.496 30.9907 8.604 30.5827 8.596C30.4787 8.596 30.3707 8.588 30.2587 8.572C30.1547 8.556 30.0547 8.532 29.9587 8.5Z" stroke="#A6A6A6" mask="url(#path-1-outside-1_926_195)"/>
<path d="M40.7091 9.496H41.8491L38.5131 1.096H37.5171L34.1931 9.496H35.3211L36.1491 7.36H39.8811L40.7091 9.496ZM36.5211 6.388L38.0211 2.536L39.5091 6.388H36.5211Z" stroke="#A6A6A6" mask="url(#path-1-outside-1_926_195)"/>
<path d="M42.6321 3.376H43.3281L44.5881 1H43.2801L42.6321 3.376Z" stroke="#A6A6A6" mask="url(#path-1-outside-1_926_195)"/>
<path d="M48.9389 9.592C49.8669 9.584 50.6029 9.368 51.1469 8.944C51.6909 8.52 51.9709 7.948 51.9869 7.228C51.7869 5.708 50.9869 4.856 49.5869 4.672C48.1869 4.488 47.3869 3.996 47.1869 3.196C47.1949 2.812 47.3469 2.512 47.6429 2.296C47.9469 2.08 48.3709 1.972 48.9149 1.972C49.4509 1.98 49.8869 2.112 50.2229 2.368C50.5589 2.632 50.7709 2.996 50.8589 3.46L51.8549 3.076C51.7349 2.444 51.4109 1.94 50.8829 1.564C50.3549 1.196 49.6989 1.008 48.9149 1C48.0749 1.008 47.3949 1.212 46.8749 1.612C46.3629 2.004 46.0989 2.532 46.0829 3.196C46.2829 4.524 47.0789 5.288 48.4709 5.488C49.8629 5.688 50.6589 6.272 50.8589 7.24C50.8509 7.664 50.6789 8 50.3429 8.248C50.0069 8.488 49.5469 8.612 48.9629 8.62C48.3949 8.612 47.9109 8.436 47.5109 8.092C47.1189 7.74 46.8749 7.268 46.7789 6.676L45.7469 7.012C45.8989 7.788 46.2629 8.408 46.8389 8.872C47.4149 9.344 48.1149 9.584 48.9389 9.592Z" stroke="#A6A6A6" mask="url(#path-1-outside-1_926_195)"/>
<path d="M58.8167 9.496H59.9567L61.9967 2.728L64.0127 9.496H65.1647L67.7087 1.096H66.5807L64.5767 8.236L62.5607 1.096H61.4207L59.3927 8.236L57.3887 1.096H56.2607L58.8167 9.496Z" stroke="#A6A6A6" mask="url(#path-1-outside-1_926_195)"/>
<path d="M72.9195 9.592C74.1355 9.568 75.1235 9.164 75.8835 8.38C76.6355 7.596 77.0235 6.568 77.0475 5.296C77.0235 4.024 76.6355 2.996 75.8835 2.212C75.1235 1.428 74.1355 1.024 72.9195 1C71.6955 1.024 70.7075 1.428 69.9555 2.212C69.1955 2.996 68.8035 4.024 68.7795 5.296C68.8035 6.568 69.1955 7.596 69.9555 8.38C70.7075 9.164 71.6955 9.568 72.9195 9.592ZM72.9075 8.608C72.0195 8.592 71.2995 8.28 70.7475 7.672C70.1955 7.064 69.9115 6.272 69.8955 5.296C69.9115 4.32 70.1955 3.524 70.7475 2.908C71.2995 2.3 72.0195 1.988 72.9075 1.972C73.8035 1.988 74.5275 2.3 75.0795 2.908C75.6315 3.524 75.9155 4.32 75.9315 5.296C75.9155 6.272 75.6315 7.064 75.0795 7.672C74.5275 8.28 73.8035 8.592 72.9075 8.608Z" stroke="#A6A6A6" mask="url(#path-1-outside-1_926_195)"/>
<path d="M85.3093 9.496L82.8853 5.584C83.3733 5.408 83.7533 5.136 84.0253 4.768C84.2973 4.392 84.4373 3.944 84.4453 3.424C84.4373 2.712 84.1973 2.148 83.7253 1.732C83.2533 1.316 82.6133 1.104 81.8053 1.096H78.7813V9.496H79.8733V5.752H81.7333L84.0613 9.496H85.3093ZM79.8733 2.068H81.6853C82.2053 2.068 82.6093 2.188 82.8973 2.428C83.1853 2.66 83.3293 2.992 83.3293 3.424C83.3293 3.856 83.1853 4.188 82.8973 4.42C82.6093 4.652 82.2053 4.768 81.6853 4.768H79.8733V2.068Z" stroke="#A6A6A6" mask="url(#path-1-outside-1_926_195)"/>
<path d="M91.9556 9.496H93.2756L89.6876 4.432L92.9276 1.096H91.4756L87.8036 4.9V1.096H86.7116V9.496H87.8036V6.352L88.9196 5.2L91.9556 9.496Z" stroke="#A6A6A6" mask="url(#path-1-outside-1_926_195)"/>
</svg>
