<svg width="20" height="20" viewBox="0 0 20 20" fill="none" xmlns="http://www.w3.org/2000/svg">
<path fill-rule="evenodd" clip-rule="evenodd" d="M10 0C4.477 0 0 4.477 0 10C0 15.523 4.477 20 10 20C15.523 20 20 15.523 20 10C20 4.477 15.523 0 10 0ZM5.269 8.44C8.509 7.536 11.774 7.991 14.603 9.214C14.846 9.31668 15.1198 9.31915 15.3646 9.22088C15.6095 9.1226 15.8056 8.93155 15.9102 8.68935C16.0148 8.44714 16.0195 8.17341 15.9232 7.92778C15.8268 7.68216 15.6374 7.48454 15.396 7.378C12.226 6.008 8.49 5.465 4.731 6.514C4.4795 6.58873 4.26744 6.75931 4.14055 6.98896C4.01366 7.2186 3.98211 7.48892 4.0527 7.74162C4.12328 7.99431 4.29035 8.20915 4.51789 8.33979C4.74542 8.47044 5.01518 8.50642 5.269 8.44ZM5.745 11.306C8.533 10.529 11.741 11.015 13.525 12.11C13.7511 12.2487 14.023 12.2919 14.281 12.2301C14.5389 12.1683 14.7618 12.0066 14.9005 11.7805C15.0392 11.5544 15.0824 11.2825 15.0206 11.0245C14.9588 10.7666 14.7971 10.5437 14.571 10.405C12.259 8.985 8.467 8.471 5.208 9.38C4.9581 9.45597 4.74783 9.62671 4.62218 9.85569C4.49652 10.0847 4.46545 10.3537 4.5356 10.6053C4.60575 10.8569 4.77156 11.0711 4.99756 11.202C5.22357 11.333 5.49184 11.3703 5.745 11.306ZM6.176 14.06C7.306 13.8 8.563 13.797 9.668 13.969C10.808 14.145 11.63 14.483 11.986 14.775C12.1915 14.9429 12.4554 15.0222 12.7194 14.9956C12.9835 14.969 13.2261 14.8385 13.394 14.633C13.5619 14.4275 13.6412 14.1636 13.6146 13.8996C13.588 13.6355 13.4575 13.3929 13.252 13.225C12.489 12.602 11.252 12.19 9.975 11.992C8.663 11.789 7.146 11.785 5.728 12.112C5.5963 12.1376 5.4711 12.1895 5.35985 12.2645C5.24861 12.3395 5.15361 12.4362 5.08049 12.5487C5.00738 12.6612 4.95765 12.7872 4.93427 12.9194C4.9109 13.0515 4.91435 13.187 4.94442 13.3177C4.97449 13.4485 5.03057 13.5719 5.10932 13.6805C5.18806 13.7891 5.28787 13.8808 5.40278 13.9501C5.5177 14.0193 5.64538 14.0648 5.77822 14.0836C5.91105 14.1025 6.04633 14.0945 6.176 14.06Z" fill="black"/>
</svg>
